<svg xmlns="http://www.w3.org/2000/svg" xmlns:xlink="http://www.w3.org/1999/xlink" viewBox="0 0 344.01 359.15"><defs><style>.cls-1{font-size:60.57px;font-family:PalatinoLinotype-Bold, Palatino Linotype;font-weight:700;letter-spacing:0.2em;}.cls-1,.cls-2{fill:#393a39;}.cls-2{font-size:21px;font-family:CoolveticaRg-Regular, Coolvetica;}.cls-3{letter-spacing:-0.03em;}.cls-4{letter-spacing:-0.02em;}.cls-5{letter-spacing:0em;}.cls-6{fill:url(#linear-gradient);}</style><linearGradient id="linear-gradient" x1="466.06" y1="349.15" x2="810.06" y2="349.15" gradientUnits="userSpaceOnUse"><stop offset="0" stop-color="#00e6ff"/><stop offset="1" stop-color="#006aff"/></linearGradient></defs><g id="Layer_1" data-name="Layer 1"><text class="cls-1" transform="translate(63.25 319.87)">LN</text><text class="cls-2" transform="translate(45.84 354.26)"><tspan class="cls-3">L</tspan><tspan x="9.98" y="0">on</tspan><tspan class="cls-4" x="31.86" y="0">z</tspan><tspan class="cls-5" x="40.78" y="0">o Neatherlin</tspan></text><path class="cls-6" d="M793.27,350.14a16.74,16.74,0,0,0-15.58,10.56l-.21.51H738.94c-7.1,0-9.52-4.17-18.71-14.12,2.73-2.28,1.61-1.25,12-12.46,1.49-1.63,1.86-1.17,18.7-1.17l.2.52a16.8,16.8,0,1,0,0-12.48l-.2.51h-16c-14.39,0-16.5,18.78-29.59,18.78H648c.61-2.53.81-3.54,1-4.87H704.7c5.4,0,5.41-8.17,0-8.17H591.34a4.09,4.09,0,0,1,0-8.17h75.32a24.48,24.48,0,0,0,17.94-7.85c9.62-10.43,9.56-10.93,11.66-10.93h19.22l.21.52a16.8,16.8,0,1,0,0-12.48l-.21.51H696.26a15.13,15.13,0,0,0-11.08,4.85c-15.09,16.36-9.42,13.93-38.28,13.93-.58-1.76-1.23-3.51-2-5.23h25.4c5.4,0,5.4-8.17,0-8.17H601.5a4.09,4.09,0,0,1,0-8.17h50.43a24.15,24.15,0,0,0,17.91-8l14.4-16,.45.09a16.65,16.65,0,0,0,3.09.3,16.87,16.87,0,1,0-13.72-7.15l.37.53c-13.42,14.9-15.37,18.74-22.5,18.74H621.56a70.57,70.57,0,0,0-8.7-5h28.76c7.45,0,7.46-8.17,0-8.17,0,0-69-.09-71,0-32.41,1.46-50.69,12.07-60.72,20.82-11.84,10.33-17,21.63-21.34,29.49-7.42,13.58-9.74,20.4-21.91,53.26-2.53,6.83,3.26,7.41,9.75,12.28,0,12.09.65,35,1.19,37.81,2.31,11.95,12.8,13.67,21,13.72,1-.07,10.95-.13,22.85-.18,4.35,12.64,9.44,28.5,13,39.74h85.82c-3.4-9.83-7.38-22.93-10.28-35h33.21a4.09,4.09,0,1,0,0-8.17H592.89a4.09,4.09,0,0,1,0-8.17l63.25.13a12.66,12.66,0,0,1,9.4,4.19l13.1,14.55-.37.53a16.78,16.78,0,1,0,10.18-6.76l-14.39-16a24.16,24.16,0,0,0-17.92-8H606.71a23.54,23.54,0,0,1,2.16-4.87h78.64a4.09,4.09,0,0,0,0-8.17H580a4.09,4.09,0,0,1,0-8.17c103.72,0,117.48.12,118.87.12a12.66,12.66,0,0,1,9.4,4.19l13.11,14.55-.38.53a16.78,16.78,0,1,0,10.18-6.76l-14.39-16a24.16,24.16,0,0,0-17.92-8H632.17c1.18-1.56,2.36-3.16,3.51-4.87h61.57a4.09,4.09,0,0,0,0-8.17H601.5a4.09,4.09,0,0,1,0-8.17s42.83-.13,42.86-.19c67.32,0,61.34.14,64.74-.34L721,364.81a24.51,24.51,0,0,0,18,7.86h38.54l.21.51a16.79,16.79,0,1,0,15.58-23Zm-26.6-27.74a5.34,5.34,0,1,1-5.34,5.34A5.34,5.34,0,0,1,766.67,322.4Zm-35.4-32.66a5.34,5.34,0,1,1-5.34,5.34A5.35,5.35,0,0,1,731.27,289.74Zm-43.49-48.89a5.34,5.34,0,1,1,0,10.68,5.11,5.11,0,0,1-1.58-.26l-.3-.17-3-2.85a5.2,5.2,0,0,1-.42-2.06A5.35,5.35,0,0,1,687.78,240.85Zm-.71,203.65,3-2.85.3-.17a5.16,5.16,0,0,1,1.58-.26,5.34,5.34,0,1,1-5.34,5.34A5.23,5.23,0,0,1,687.07,444.5ZM729.78,412l3-2.85.3-.17a5.48,5.48,0,0,1,1.58-.26,5.34,5.34,0,1,1-5.34,5.34A5.23,5.23,0,0,1,729.78,412Zm63.49-39.68a5.34,5.34,0,1,1,5.34-5.34A5.34,5.34,0,0,1,793.27,372.28Z" transform="translate(-466.06 -229.4)"/></g></svg>